<svg width="136" height="73" viewBox="0 0 136 73" fill="none" xmlns="http://www.w3.org/2000/svg">
<rect x="0.5" y="9.5" width="135" height="63" rx="4.5" stroke="url(#paint0_linear_77_41)"/>
<path d="M65.2581 18V24.96H57.6581V46H49.8981V24.96H42.2981V18H65.2581ZM90.5513 25H80.5113V29.44H89.5113V36.2H80.5113V46H72.7113V18H90.5513V25ZM111.792 46.72C103.272 46.72 96.9119 40.4 96.9119 32.04C96.9119 23.64 103.272 17.32 111.792 17.32C119.112 17.32 124.792 22.16 125.952 29.24H118.112C117.152 26.4 114.752 24.52 111.792 24.52C107.832 24.52 104.912 27.72 104.912 32.04C104.912 36.36 107.832 39.52 111.792 39.52C114.912 39.52 117.352 37.48 118.152 34.36H126.032C124.952 41.72 119.232 46.72 111.792 46.72Z" fill="#303030"/>
<path d="M10.48 44L12.56 37.4H9.48V33.84H13.68L15.36 28.4H11.24V24.8H16.48L18.56 18.24H23.24L21.16 24.8H27.12L29.2 18.24H33.88L31.8 24.8H34.72V28.4H30.68L28.96 33.84H32.96V37.4H27.84L25.76 44H21.12L23.2 37.4H17.2L15.12 44H10.48ZM18.32 33.84H24.32L26 28.4H20.04L18.32 33.84Z" fill="#303030"/>
<path d="M13.4936 55.4545V56.6974H8.54688V55.4545H13.4936ZM9.98864 53.1676H11.4553V62.2656C11.4553 62.6799 11.5153 62.9906 11.6355 63.1978C11.7598 63.4008 11.9172 63.5375 12.1078 63.608C12.3025 63.6742 12.5076 63.7074 12.723 63.7074C12.8846 63.7074 13.0172 63.6991 13.1207 63.6825C13.2243 63.6618 13.3072 63.6452 13.3693 63.6328L13.6676 64.9503C13.5682 64.9876 13.4294 65.0249 13.2512 65.0621C13.0731 65.1036 12.8473 65.1243 12.5739 65.1243C12.1596 65.1243 11.7536 65.0352 11.3558 64.8571C10.9622 64.6789 10.6349 64.4076 10.3739 64.043C10.1171 63.6784 9.98864 63.2185 9.98864 62.6634V53.1676ZM15.3498 65V55.4545H16.8164V65H15.3498ZM16.0955 53.8636C15.8096 53.8636 15.5631 53.7663 15.356 53.5716C15.153 53.3768 15.0515 53.1428 15.0515 52.8693C15.0515 52.5959 15.153 52.3618 15.356 52.1671C15.5631 51.9724 15.8096 51.875 16.0955 51.875C16.3814 51.875 16.6258 51.9724 16.8288 52.1671C17.0359 52.3618 17.1395 52.5959 17.1395 52.8693C17.1395 53.1428 17.0359 53.3768 16.8288 53.5716C16.6258 53.7663 16.3814 53.8636 16.0955 53.8636ZM19.1526 65V55.4545H20.5695V56.946H20.6938C20.8926 56.4364 21.2137 56.0408 21.657 55.7591C22.1003 55.4732 22.6327 55.3303 23.2541 55.3303C23.8839 55.3303 24.408 55.4732 24.8264 55.7591C25.249 56.0408 25.5784 56.4364 25.8145 56.946H25.9139C26.1584 56.453 26.525 56.0615 27.0139 55.7715C27.5028 55.4773 28.089 55.3303 28.7726 55.3303C29.6261 55.3303 30.3242 55.5975 30.8669 56.1319C31.4096 56.6622 31.681 57.4888 31.681 58.6115V65H30.2144V58.6115C30.2144 57.9072 30.0217 57.4038 29.6364 57.1014C29.2511 56.7989 28.7975 56.6477 28.2755 56.6477C27.6043 56.6477 27.0843 56.8507 26.7156 57.2567C26.3469 57.6586 26.1625 58.1682 26.1625 58.7855V65H24.671V58.4624C24.671 57.9196 24.495 57.4825 24.1428 57.1511C23.7907 56.8155 23.337 56.6477 22.7818 56.6477C22.4007 56.6477 22.0444 56.7492 21.713 56.9522C21.3857 57.1552 21.1205 57.437 20.9175 57.7974C20.7186 58.1537 20.6192 58.5659 20.6192 59.0341V65H19.1526ZM38.0147 65.1989C37.0949 65.1989 36.3015 64.9959 35.6345 64.5898C34.9716 64.1797 34.46 63.608 34.0995 62.8746C33.7433 62.1372 33.5651 61.2796 33.5651 60.3018C33.5651 59.3241 33.7433 58.4624 34.0995 57.7166C34.46 56.9667 34.9613 56.3826 35.6035 55.9641C36.2498 55.5415 37.0038 55.3303 37.8655 55.3303C38.3627 55.3303 38.8536 55.4131 39.3384 55.5788C39.8231 55.7446 40.2643 56.0138 40.662 56.3867C41.0598 56.7554 41.3767 57.2443 41.6129 57.8533C41.849 58.4624 41.9671 59.2122 41.9671 60.103V60.7244H34.6091V59.4567H40.4756C40.4756 58.9181 40.3679 58.4375 40.1525 58.0149C39.9412 57.5923 39.6387 57.2588 39.2451 57.0144C38.8557 56.7699 38.3958 56.6477 37.8655 56.6477C37.2814 56.6477 36.7759 56.7927 36.3492 57.0827C35.9266 57.3686 35.6014 57.7415 35.3735 58.2013C35.1457 58.6612 35.0317 59.1542 35.0317 59.6804V60.5256C35.0317 61.2464 35.156 61.8575 35.4046 62.3588C35.6573 62.856 36.0074 63.2351 36.4548 63.4961C36.9023 63.753 37.4222 63.8814 38.0147 63.8814C38.4 63.8814 38.748 63.8275 39.0587 63.7198C39.3736 63.608 39.6449 63.4422 39.8728 63.2227C40.1007 62.9989 40.2767 62.7214 40.401 62.3899L41.8179 62.7876C41.6688 63.2682 41.4181 63.6908 41.066 64.0554C40.7138 64.4158 40.2788 64.6976 39.7609 64.9006C39.2431 65.0994 38.661 65.1989 38.0147 65.1989ZM52.6707 55.4545V56.6974H47.5251V55.4545H52.6707ZM49.0663 65V54.1371C49.0663 53.5902 49.1947 53.1345 49.4516 52.7699C49.7084 52.4053 50.0419 52.1319 50.4521 51.9496C50.8623 51.7673 51.2952 51.6761 51.7509 51.6761C52.1114 51.6761 52.4055 51.7051 52.6334 51.7631C52.8613 51.8211 53.0311 51.875 53.143 51.9247L52.7204 53.1925C52.6458 53.1676 52.5422 53.1365 52.4097 53.0993C52.2812 53.062 52.1114 53.0433 51.9001 53.0433C51.4153 53.0433 51.0653 53.1655 50.8498 53.41C50.6385 53.6544 50.5329 54.0128 50.5329 54.4851V65H49.0663ZM57.8609 65.1989C56.9992 65.1989 56.2431 64.9938 55.5926 64.5836C54.9463 64.1735 54.4409 63.5997 54.0763 62.8622C53.7158 62.1248 53.5356 61.263 53.5356 60.277C53.5356 59.2827 53.7158 58.4147 54.0763 57.6731C54.4409 56.9315 54.9463 56.3556 55.5926 55.9455C56.2431 55.5353 56.9992 55.3303 57.8609 55.3303C58.7226 55.3303 59.4767 55.5353 60.123 55.9455C60.7734 56.3556 61.2789 56.9315 61.6393 57.6731C62.0039 58.4147 62.1862 59.2827 62.1862 60.277C62.1862 61.263 62.0039 62.1248 61.6393 62.8622C61.2789 63.5997 60.7734 64.1735 60.123 64.5836C59.4767 64.9938 58.7226 65.1989 57.8609 65.1989ZM57.8609 63.8814C58.5155 63.8814 59.0541 63.7136 59.4767 63.378C59.8992 63.0424 60.212 62.6012 60.415 62.0543C60.6181 61.5075 60.7196 60.915 60.7196 60.277C60.7196 59.639 60.6181 59.0444 60.415 58.4934C60.212 57.9424 59.8992 57.497 59.4767 57.1573C59.0541 56.8176 58.5155 56.6477 57.8609 56.6477C57.2063 56.6477 56.6677 56.8176 56.2451 57.1573C55.8225 57.497 55.5097 57.9424 55.3067 58.4934C55.1037 59.0444 55.0022 59.639 55.0022 60.277C55.0022 60.915 55.1037 61.5075 55.3067 62.0543C55.5097 62.6012 55.8225 63.0424 56.2451 63.378C56.6677 63.7136 57.2063 63.8814 57.8609 63.8814ZM64.0749 65V55.4545H65.4918V56.8963H65.5913C65.7653 56.424 66.0802 56.0408 66.5359 55.7466C66.9916 55.4525 67.5053 55.3054 68.0771 55.3054C68.1848 55.3054 68.3194 55.3075 68.481 55.3116C68.6426 55.3158 68.7648 55.322 68.8477 55.3303V56.8217C68.798 56.8093 68.684 56.7907 68.5059 56.7658C68.3319 56.7368 68.1475 56.7223 67.9528 56.7223C67.4888 56.7223 67.0745 56.8197 66.7099 57.0144C66.3494 57.205 66.0636 57.4701 65.8523 57.8098C65.6451 58.1454 65.5416 58.5286 65.5416 58.9595V65H64.0749ZM78.6859 65.1989C77.791 65.1989 77.0204 64.9876 76.3741 64.565C75.7278 64.1424 75.2306 63.5603 74.8826 62.8187C74.5346 62.0771 74.3606 61.2299 74.3606 60.277C74.3606 59.3075 74.5388 58.452 74.8951 57.7104C75.2555 56.9647 75.7568 56.3826 76.399 55.9641C77.0453 55.5415 77.7993 55.3303 78.661 55.3303C79.3322 55.3303 79.9371 55.4545 80.4757 55.7031C81.0143 55.9517 81.4555 56.2997 81.7994 56.7472C82.1432 57.1946 82.3566 57.7166 82.4394 58.3132H80.9728C80.861 57.8782 80.6124 57.4929 80.2271 57.1573C79.8459 56.8176 79.3322 56.6477 78.6859 56.6477C78.1142 56.6477 77.6129 56.7969 77.182 57.0952C76.7553 57.3893 76.4217 57.8057 76.1815 58.3443C75.9453 58.8787 75.8272 59.5064 75.8272 60.2273C75.8272 60.9647 75.9432 61.6069 76.1752 62.1538C76.4114 62.7006 76.7428 63.1253 77.1696 63.4277C77.6004 63.7302 78.1059 63.8814 78.6859 63.8814C79.067 63.8814 79.413 63.8151 79.7237 63.6825C80.0344 63.55 80.2975 63.3594 80.513 63.1108C80.7284 62.8622 80.8817 62.5639 80.9728 62.2159H82.4394C82.3566 62.7794 82.1515 63.2869 81.8242 63.7385C81.5011 64.1859 81.0723 64.5422 80.5378 64.8074C80.0075 65.0684 79.3902 65.1989 78.6859 65.1989ZM88.1113 65.1989C87.2495 65.1989 86.4934 64.9938 85.843 64.5836C85.1967 64.1735 84.6912 63.5997 84.3267 62.8622C83.9662 62.1248 83.786 61.263 83.786 60.277C83.786 59.2827 83.9662 58.4147 84.3267 57.6731C84.6912 56.9315 85.1967 56.3556 85.843 55.9455C86.4934 55.5353 87.2495 55.3303 88.1113 55.3303C88.973 55.3303 89.7271 55.5353 90.3734 55.9455C91.0238 56.3556 91.5293 56.9315 91.8897 57.6731C92.2543 58.4147 92.4366 59.2827 92.4366 60.277C92.4366 61.263 92.2543 62.1248 91.8897 62.8622C91.5293 63.5997 91.0238 64.1735 90.3734 64.5836C89.7271 64.9938 88.973 65.1989 88.1113 65.1989ZM88.1113 63.8814C88.7659 63.8814 89.3045 63.7136 89.7271 63.378C90.1496 63.0424 90.4624 62.6012 90.6654 62.0543C90.8684 61.5075 90.9699 60.915 90.9699 60.277C90.9699 59.639 90.8684 59.0444 90.6654 58.4934C90.4624 57.9424 90.1496 57.497 89.7271 57.1573C89.3045 56.8176 88.7659 56.6477 88.1113 56.6477C87.4567 56.6477 86.9181 56.8176 86.4955 57.1573C86.0729 57.497 85.7601 57.9424 85.5571 58.4934C85.3541 59.0444 85.2526 59.639 85.2526 60.277C85.2526 60.915 85.3541 61.5075 85.5571 62.0543C85.7601 62.6012 86.0729 63.0424 86.4955 63.378C86.9181 63.7136 87.4567 63.8814 88.1113 63.8814ZM98.576 55.4545V56.6974H93.4305V55.4545H98.576ZM94.9716 65V54.1371C94.9716 53.5902 95.1001 53.1345 95.3569 52.7699C95.6138 52.4053 95.9473 52.1319 96.3575 51.9496C96.7676 51.7673 97.2006 51.6761 97.6563 51.6761C98.0167 51.6761 98.3109 51.7051 98.5388 51.7631C98.7666 51.8211 98.9365 51.875 99.0484 51.9247L98.6258 53.1925C98.5512 53.1676 98.4476 53.1365 98.315 53.0993C98.1866 53.062 98.0167 53.0433 97.8055 53.0433C97.3207 53.0433 96.9706 53.1655 96.7552 53.41C96.5439 53.6544 96.4383 54.0128 96.4383 54.4851V65H94.9716ZM104.532 55.4545V56.6974H99.3866V55.4545H104.532ZM100.928 65V54.1371C100.928 53.5902 101.056 53.1345 101.313 52.7699C101.57 52.4053 101.903 52.1319 102.314 51.9496C102.724 51.7673 103.157 51.6761 103.612 51.6761C103.973 51.6761 104.267 51.7051 104.495 51.7631C104.723 51.8211 104.893 51.875 105.005 51.9247L104.582 53.1925C104.507 53.1676 104.404 53.1365 104.271 53.0993C104.143 53.062 103.973 53.0433 103.762 53.0433C103.277 53.0433 102.927 53.1655 102.711 53.41C102.5 53.6544 102.394 54.0128 102.394 54.4851V65H100.928ZM109.847 65.1989C108.927 65.1989 108.134 64.9959 107.467 64.5898C106.804 64.1797 106.292 63.608 105.932 62.8746C105.575 62.1372 105.397 61.2796 105.397 60.3018C105.397 59.3241 105.575 58.4624 105.932 57.7166C106.292 56.9667 106.793 56.3826 107.435 55.9641C108.082 55.5415 108.836 55.3303 109.698 55.3303C110.195 55.3303 110.686 55.4131 111.17 55.5788C111.655 55.7446 112.096 56.0138 112.494 56.3867C112.892 56.7554 113.209 57.2443 113.445 57.8533C113.681 58.4624 113.799 59.2122 113.799 60.103V60.7244H106.441V59.4567H112.308C112.308 58.9181 112.2 58.4375 111.984 58.0149C111.773 57.5923 111.471 57.2588 111.077 57.0144C110.688 56.7699 110.228 56.6477 109.698 56.6477C109.113 56.6477 108.608 56.7927 108.181 57.0827C107.759 57.3686 107.433 57.7415 107.206 58.2013C106.978 58.6612 106.864 59.1542 106.864 59.6804V60.5256C106.864 61.2464 106.988 61.8575 107.237 62.3588C107.489 62.856 107.839 63.2351 108.287 63.4961C108.734 63.753 109.254 63.8814 109.847 63.8814C110.232 63.8814 110.58 63.8275 110.891 63.7198C111.206 63.608 111.477 63.4422 111.705 63.2227C111.933 62.9989 112.109 62.7214 112.233 62.3899L113.65 62.7876C113.501 63.2682 113.25 63.6908 112.898 64.0554C112.546 64.4158 112.111 64.6976 111.593 64.9006C111.075 65.0994 110.493 65.1989 109.847 65.1989ZM119.682 65.1989C118.763 65.1989 117.969 64.9959 117.302 64.5898C116.639 64.1797 116.128 63.608 115.767 62.8746C115.411 62.1372 115.233 61.2796 115.233 60.3018C115.233 59.3241 115.411 58.4624 115.767 57.7166C116.128 56.9667 116.629 56.3826 117.271 55.9641C117.917 55.5415 118.671 55.3303 119.533 55.3303C120.03 55.3303 120.521 55.4131 121.006 55.5788C121.491 55.7446 121.932 56.0138 122.33 56.3867C122.727 56.7554 123.044 57.2443 123.28 57.8533C123.517 58.4624 123.635 59.2122 123.635 60.103V60.7244H116.277V59.4567H122.143C122.143 58.9181 122.035 58.4375 121.82 58.0149C121.609 57.5923 121.306 57.2588 120.913 57.0144C120.523 56.7699 120.063 56.6477 119.533 56.6477C118.949 56.6477 118.443 56.7927 118.017 57.0827C117.594 57.3686 117.269 57.7415 117.041 58.2013C116.813 58.6612 116.699 59.1542 116.699 59.6804V60.5256C116.699 61.2464 116.824 61.8575 117.072 62.3588C117.325 62.856 117.675 63.2351 118.122 63.4961C118.57 63.753 119.09 63.8814 119.682 63.8814C120.068 63.8814 120.416 63.8275 120.726 63.7198C121.041 63.608 121.313 63.4422 121.54 63.2227C121.768 62.9989 121.944 62.7214 122.069 62.3899L123.486 62.7876C123.336 63.2682 123.086 63.6908 122.734 64.0554C122.381 64.4158 121.946 64.6976 121.429 64.9006C120.911 65.0994 120.329 65.1989 119.682 65.1989Z" fill="#303030"/>
<defs>
<linearGradient id="paint0_linear_77_41" x1="68" y1="10" x2="68" y2="72" gradientUnits="userSpaceOnUse">
<stop stop-color="#404040"/>
<stop offset="1" stop-color="#848484"/>
</linearGradient>
</defs>
</svg>
